<!--?xml version="1.0" standalone="no"?-->
              <svg id="sw-js-blob-svg" viewBox="0 0 300 100" xmlns="http://www.w3.org/2000/svg" version="1.1">
                    <defs> 
                        <linearGradient id="sw-gradient" x1="0" x2="1" y1="1" y2="0">
                            <stop id="stop1" stop-color="rgba(220, 109, 97, 1)" offset="0%"></stop>
                            <stop id="stop2" stop-color="rgba(220, 109, 97, 1)" offset="100%"></stop>
                        </linearGradient>
                    </defs>
                <path fill="url(#sw-gradient)" d="M11.1,-16.2C14.8,-10.1,18.6,-7,23.9,-0.7C29.2,5.6,36,15.2,34.4,21.6C32.8,28.1,22.7,31.4,13.6,32.8C4.5,34.1,-3.7,33.4,-8.3,29.1C-13,24.7,-14,16.7,-15.2,10.7C-16.4,4.7,-17.7,0.7,-16.8,-2.7C-15.8,-6,-12.6,-8.6,-9.4,-14.8C-6.3,-20.9,-3.1,-30.7,0.3,-31C3.7,-31.4,7.4,-22.3,11.1,-16.2Z" width="100%" height="100%" transform="translate(50 50)" stroke-width="0" style="transition: all 0.3s ease 0s;"></path>
              </svg>