<svg id="visual" viewBox="0 0 960 100" width="960" height="100" xmlns="http://www.w3.org/2000/svg" xmlns:xlink="http://www.w3.org/1999/xlink" version="1.1"><rect x="0" y="0" width="960" height="100" fill="#f5f5f5"></rect><path d="M0 83L32 85.7C64 88.3 128 93.7 192 89.8C256 86 320 73 384 68C448 63 512 66 576 66.2C640 66.3 704 63.7 768 56C832 48.3 896 35.7 928 29.3L960 23L960 0L928 0C896 0 832 0 768 0C704 0 640 0 576 0C512 0 448 0 384 0C320 0 256 0 192 0C128 0 64 0 32 0L0 0Z" fill="#f5f5f5"></path><path d="M0 64L32 56.2C64 48.3 128 32.7 192 23.5C256 14.3 320 11.7 384 20C448 28.3 512 47.7 576 50.3C640 53 704 39 768 38.7C832 38.3 896 51.7 928 58.3L960 65L960 0L928 0C896 0 832 0 768 0C704 0 640 0 576 0C512 0 448 0 384 0C320 0 256 0 192 0C128 0 64 0 32 0L0 0Z" fill="#86858e"></path><path d="M0 11L32 17C64 23 128 35 192 35.5C256 36 320 25 384 25C448 25 512 36 576 40.5C640 45 704 43 768 39C832 35 896 29 928 26L960 23L960 0L928 0C896 0 832 0 768 0C704 0 640 0 576 0C512 0 448 0 384 0C320 0 256 0 192 0C128 0 64 0 32 0L0 0Z" fill="#262534"></path></svg>