<svg id="visual" viewBox="0 0 960 100" width="960" height="100" xmlns="http://www.w3.org/2000/svg" xmlns:xlink="http://www.w3.org/1999/xlink" version="1.1"><rect x="0" y="0" width="960" height="100" fill="#f5f5f5"></rect><path d="M0 15L32 12.5C64 10 128 5 192 8.8C256 12.7 320 25.3 384 30.2C448 35 512 32 576 31.8C640 31.7 704 34.3 768 42C832 49.7 896 62.3 928 68.7L960 75L960 101L928 101C896 101 832 101 768 101C704 101 640 101 576 101C512 101 448 101 384 101C320 101 256 101 192 101C128 101 64 101 32 101L0 101Z" fill="#f5f5f5"></path><path d="M0 34L32 41.8C64 49.7 128 65.3 192 74.5C256 83.7 320 86.3 384 78C448 69.7 512 50.3 576 47.7C640 45 704 59 768 59.3C832 59.7 896 46.3 928 39.7L960 33L960 101L928 101C896 101 832 101 768 101C704 101 640 101 576 101C512 101 448 101 384 101C320 101 256 101 192 101C128 101 64 101 32 101L0 101Z" fill="#86858e"></path><path d="M0 87L32 81C64 75 128 63 192 62.5C256 62 320 73 384 73C448 73 512 62 576 57.5C640 53 704 55 768 59C832 63 896 69 928 72L960 75L960 101L928 101C896 101 832 101 768 101C704 101 640 101 576 101C512 101 448 101 384 101C320 101 256 101 192 101C128 101 64 101 32 101L0 101Z" fill="#262534"></path></svg>