<svg id="visual" viewBox="0 0 960 200" width="960" height="200" xmlns="http://www.w3.org/2000/svg" xmlns:xlink="http://www.w3.org/1999/xlink" version="1.1"><rect x="0" y="0" width="960" height="200" fill="#f5f5f5"></rect><path d="M0 181L12.3 177.3C24.7 173.7 49.3 166.3 74 163.8C98.7 161.3 123.3 163.7 148 165.2C172.7 166.7 197.3 167.3 221.8 164.3C246.3 161.3 270.7 154.7 295.2 151.7C319.7 148.7 344.3 149.3 369 152.3C393.7 155.3 418.3 160.7 443 160.7C467.7 160.7 492.3 155.3 517 155.8C541.7 156.3 566.3 162.7 591 168.5C615.7 174.3 640.3 179.7 664.8 177.5C689.3 175.3 713.7 165.7 738.2 159.3C762.7 153 787.3 150 812 151.2C836.7 152.3 861.3 157.7 886 159.2C910.7 160.7 935.3 158.3 947.7 157.2L960 156L960 0L947.7 0C935.3 0 910.7 0 886 0C861.3 0 836.7 0 812 0C787.3 0 762.7 0 738.2 0C713.7 0 689.3 0 664.8 0C640.3 0 615.7 0 591 0C566.3 0 541.7 0 517 0C492.3 0 467.7 0 443 0C418.3 0 393.7 0 369 0C344.3 0 319.7 0 295.2 0C270.7 0 246.3 0 221.8 0C197.3 0 172.7 0 148 0C123.3 0 98.7 0 74 0C49.3 0 24.7 0 12.3 0L0 0Z" fill="#262534"></path><path d="M0 117L12.3 120C24.7 123 49.3 129 74 131.2C98.7 133.3 123.3 131.7 148 132.2C172.7 132.7 197.3 135.3 221.8 135C246.3 134.7 270.7 131.3 295.2 133C319.7 134.7 344.3 141.3 369 141.2C393.7 141 418.3 134 443 132.3C467.7 130.7 492.3 134.3 517 137C541.7 139.7 566.3 141.3 591 138.5C615.7 135.7 640.3 128.3 664.8 126.2C689.3 124 713.7 127 738.2 129.5C762.7 132 787.3 134 812 131.7C836.7 129.3 861.3 122.7 886 122.7C910.7 122.7 935.3 129.3 947.7 132.7L960 136L960 0L947.7 0C935.3 0 910.7 0 886 0C861.3 0 836.7 0 812 0C787.3 0 762.7 0 738.2 0C713.7 0 689.3 0 664.8 0C640.3 0 615.7 0 591 0C566.3 0 541.7 0 517 0C492.3 0 467.7 0 443 0C418.3 0 393.7 0 369 0C344.3 0 319.7 0 295.2 0C270.7 0 246.3 0 221.8 0C197.3 0 172.7 0 148 0C123.3 0 98.7 0 74 0C49.3 0 24.7 0 12.3 0L0 0Z" fill="#54535f"></path><path d="M0 106L12.3 107.3C24.7 108.7 49.3 111.3 74 107.8C98.7 104.3 123.3 94.7 148 90.2C172.7 85.7 197.3 86.3 221.8 88.8C246.3 91.3 270.7 95.7 295.2 96.2C319.7 96.7 344.3 93.3 369 91C393.7 88.7 418.3 87.3 443 90.3C467.7 93.3 492.3 100.7 517 103.3C541.7 106 566.3 104 591 102.5C615.7 101 640.3 100 664.8 98C689.3 96 713.7 93 738.2 93.5C762.7 94 787.3 98 812 100.5C836.7 103 861.3 104 886 103C910.7 102 935.3 99 947.7 97.5L960 96L960 0L947.7 0C935.3 0 910.7 0 886 0C861.3 0 836.7 0 812 0C787.3 0 762.7 0 738.2 0C713.7 0 689.3 0 664.8 0C640.3 0 615.7 0 591 0C566.3 0 541.7 0 517 0C492.3 0 467.7 0 443 0C418.3 0 393.7 0 369 0C344.3 0 319.7 0 295.2 0C270.7 0 246.3 0 221.8 0C197.3 0 172.7 0 148 0C123.3 0 98.7 0 74 0C49.3 0 24.7 0 12.3 0L0 0Z" fill="#86858e"></path><path d="M0 50L12.3 50.8C24.7 51.7 49.3 53.3 74 59.2C98.7 65 123.3 75 148 73.5C172.7 72 197.3 59 221.8 52.8C246.3 46.7 270.7 47.3 295.2 53.2C319.7 59 344.3 70 369 71.3C393.7 72.7 418.3 64.3 443 62.2C467.7 60 492.3 64 517 67.5C541.7 71 566.3 74 591 73.7C615.7 73.3 640.3 69.7 664.8 67C689.3 64.3 713.7 62.7 738.2 60C762.7 57.3 787.3 53.7 812 53.8C836.7 54 861.3 58 886 61.5C910.7 65 935.3 68 947.7 69.5L960 71L960 0L947.7 0C935.3 0 910.7 0 886 0C861.3 0 836.7 0 812 0C787.3 0 762.7 0 738.2 0C713.7 0 689.3 0 664.8 0C640.3 0 615.7 0 591 0C566.3 0 541.7 0 517 0C492.3 0 467.7 0 443 0C418.3 0 393.7 0 369 0C344.3 0 319.7 0 295.2 0C270.7 0 246.3 0 221.8 0C197.3 0 172.7 0 148 0C123.3 0 98.7 0 74 0C49.3 0 24.7 0 12.3 0L0 0Z" fill="#bcbbc0"></path><path d="M0 24L12.3 28C24.7 32 49.3 40 74 38.2C98.7 36.3 123.3 24.7 148 22.7C172.7 20.7 197.3 28.3 221.8 31.8C246.3 35.3 270.7 34.7 295.2 31.3C319.7 28 344.3 22 369 19.3C393.7 16.7 418.3 17.3 443 23.2C467.7 29 492.3 40 517 44.8C541.7 49.7 566.3 48.3 591 47.2C615.7 46 640.3 45 664.8 45.3C689.3 45.7 713.7 47.3 738.2 45.5C762.7 43.7 787.3 38.3 812 37C836.7 35.7 861.3 38.3 886 36C910.7 33.7 935.3 26.3 947.7 22.7L960 19L960 0L947.7 0C935.3 0 910.7 0 886 0C861.3 0 836.7 0 812 0C787.3 0 762.7 0 738.2 0C713.7 0 689.3 0 664.8 0C640.3 0 615.7 0 591 0C566.3 0 541.7 0 517 0C492.3 0 467.7 0 443 0C418.3 0 393.7 0 369 0C344.3 0 319.7 0 295.2 0C270.7 0 246.3 0 221.8 0C197.3 0 172.7 0 148 0C123.3 0 98.7 0 74 0C49.3 0 24.7 0 12.3 0L0 0Z" fill="#f5f5f5"></path></svg>