<svg id="visual" viewBox="0 0 960 300" width="960" height="300" xmlns="http://www.w3.org/2000/svg" xmlns:xlink="http://www.w3.org/1999/xlink" version="1.1"><path d="M0 80L22.8 86.5C45.7 93 91.3 106 137 113C182.7 120 228.3 121 274 119.5C319.7 118 365.3 114 411.2 110.2C457 106.3 503 102.7 548.8 98C594.7 93.3 640.3 87.7 686 89.5C731.7 91.3 777.3 100.7 823 103.3C868.7 106 914.3 102 937.2 100L960 98L960 0L937.2 0C914.3 0 868.7 0 823 0C777.3 0 731.7 0 686 0C640.3 0 594.7 0 548.8 0C503 0 457 0 411.2 0C365.3 0 319.7 0 274 0C228.3 0 182.7 0 137 0C91.3 0 45.7 0 22.8 0L0 0Z" fill="#262534"></path><path d="M0 69L22.8 71.2C45.7 73.3 91.3 77.7 137 80.8C182.7 84 228.3 86 274 83.3C319.7 80.7 365.3 73.3 411.2 70.8C457 68.3 503 70.7 548.8 75.7C594.7 80.7 640.3 88.3 686 90C731.7 91.7 777.3 87.3 823 86C868.7 84.7 914.3 86.3 937.2 87.2L960 88L960 0L937.2 0C914.3 0 868.7 0 823 0C777.3 0 731.7 0 686 0C640.3 0 594.7 0 548.8 0C503 0 457 0 411.2 0C365.3 0 319.7 0 274 0C228.3 0 182.7 0 137 0C91.3 0 45.7 0 22.8 0L0 0Z" fill="#565562"></path><path d="M0 58L22.8 57.7C45.7 57.3 91.3 56.7 137 60C182.7 63.3 228.3 70.7 274 74.7C319.7 78.7 365.3 79.3 411.2 77.7C457 76 503 72 548.8 68.3C594.7 64.7 640.3 61.3 686 61.8C731.7 62.3 777.3 66.7 823 66.7C868.7 66.7 914.3 62.3 937.2 60.2L960 58L960 0L937.2 0C914.3 0 868.7 0 823 0C777.3 0 731.7 0 686 0C640.3 0 594.7 0 548.8 0C503 0 457 0 411.2 0C365.3 0 319.7 0 274 0C228.3 0 182.7 0 137 0C91.3 0 45.7 0 22.8 0L0 0Z" fill="#8b8a93"></path><path d="M0 40L22.8 42.8C45.7 45.7 91.3 51.3 137 52.7C182.7 54 228.3 51 274 51.2C319.7 51.3 365.3 54.7 411.2 52.7C457 50.7 503 43.3 548.8 41.8C594.7 40.3 640.3 44.7 686 46.2C731.7 47.7 777.3 46.3 823 45.8C868.7 45.3 914.3 45.7 937.2 45.8L960 46L960 0L937.2 0C914.3 0 868.7 0 823 0C777.3 0 731.7 0 686 0C640.3 0 594.7 0 548.8 0C503 0 457 0 411.2 0C365.3 0 319.7 0 274 0C228.3 0 182.7 0 137 0C91.3 0 45.7 0 22.8 0L0 0Z" fill="#c3c3c8"></path><path d="M0 25L22.8 23.8C45.7 22.7 91.3 20.3 137 22.2C182.7 24 228.3 30 274 30.5C319.7 31 365.3 26 411.2 24.3C457 22.7 503 24.3 548.8 25.8C594.7 27.3 640.3 28.7 686 26.5C731.7 24.3 777.3 18.7 823 19.5C868.7 20.3 914.3 27.7 937.2 31.3L960 35L960 0L937.2 0C914.3 0 868.7 0 823 0C777.3 0 731.7 0 686 0C640.3 0 594.7 0 548.8 0C503 0 457 0 411.2 0C365.3 0 319.7 0 274 0C228.3 0 182.7 0 137 0C91.3 0 45.7 0 22.8 0L0 0Z" fill="#ffffff"></path></svg>