<?xml version="1.0" standalone="no"?>
<svg xmlns:xlink="http://www.w3.org/1999/xlink" id="wave" style="transform:rotate(0deg); transition: 0.3s" viewBox="0 0 1440 490" version="1.1" xmlns="http://www.w3.org/2000/svg"><defs><linearGradient id="sw-gradient-0" x1="0" x2="0" y1="1" y2="0"><stop stop-color="rgba(63, 61, 86, 1)" offset="0%"/><stop stop-color="rgba(38, 37, 52, 1)" offset="100%"/></linearGradient></defs><path style="transform:translate(0, 0px); opacity:1" fill="url(#sw-gradient-0)" d="M0,245L60,245C120,245,240,245,360,277.7C480,310,600,376,720,359.3C840,343,960,245,1080,236.8C1200,229,1320,310,1440,359.3C1560,408,1680,425,1800,367.5C1920,310,2040,180,2160,163.3C2280,147,2400,245,2520,310.3C2640,376,2760,408,2880,375.7C3000,343,3120,245,3240,179.7C3360,114,3480,82,3600,122.5C3720,163,3840,278,3960,277.7C4080,278,4200,163,4320,130.7C4440,98,4560,147,4680,138.8C4800,131,4920,65,5040,98C5160,131,5280,261,5400,261.3C5520,261,5640,131,5760,73.5C5880,16,6000,33,6120,81.7C6240,131,6360,212,6480,269.5C6600,327,6720,359,6840,318.5C6960,278,7080,163,7200,171.5C7320,180,7440,310,7560,351.2C7680,392,7800,343,7920,269.5C8040,196,8160,98,8280,49C8400,0,8520,0,8580,0L8640,0L8640,490L8580,490C8520,490,8400,490,8280,490C8160,490,8040,490,7920,490C7800,490,7680,490,7560,490C7440,490,7320,490,7200,490C7080,490,6960,490,6840,490C6720,490,6600,490,6480,490C6360,490,6240,490,6120,490C6000,490,5880,490,5760,490C5640,490,5520,490,5400,490C5280,490,5160,490,5040,490C4920,490,4800,490,4680,490C4560,490,4440,490,4320,490C4200,490,4080,490,3960,490C3840,490,3720,490,3600,490C3480,490,3360,490,3240,490C3120,490,3000,490,2880,490C2760,490,2640,490,2520,490C2400,490,2280,490,2160,490C2040,490,1920,490,1800,490C1680,490,1560,490,1440,490C1320,490,1200,490,1080,490C960,490,840,490,720,490C600,490,480,490,360,490C240,490,120,490,60,490L0,490Z"/><defs><linearGradient id="sw-gradient-1" x1="0" x2="0" y1="1" y2="0"><stop stop-color="rgba(63, 61, 86, 1)" offset="0%"/><stop stop-color="rgba(0, 0, 0, 1)" offset="100%"/></linearGradient></defs><path style="transform:translate(0, 50px); opacity:0.9" fill="url(#sw-gradient-1)" d="M0,294L60,318.5C120,343,240,392,360,392C480,392,600,343,720,334.8C840,327,960,359,1080,351.2C1200,343,1320,294,1440,245C1560,196,1680,147,1800,122.5C1920,98,2040,98,2160,122.5C2280,147,2400,196,2520,220.5C2640,245,2760,245,2880,253.2C3000,261,3120,278,3240,285.8C3360,294,3480,294,3600,294C3720,294,3840,294,3960,245C4080,196,4200,98,4320,81.7C4440,65,4560,131,4680,196C4800,261,4920,327,5040,334.8C5160,343,5280,294,5400,236.8C5520,180,5640,114,5760,147C5880,180,6000,310,6120,375.7C6240,441,6360,441,6480,416.5C6600,392,6720,343,6840,343C6960,343,7080,392,7200,392C7320,392,7440,343,7560,334.8C7680,327,7800,359,7920,383.8C8040,408,8160,425,8280,375.7C8400,327,8520,212,8580,155.2L8640,98L8640,490L8580,490C8520,490,8400,490,8280,490C8160,490,8040,490,7920,490C7800,490,7680,490,7560,490C7440,490,7320,490,7200,490C7080,490,6960,490,6840,490C6720,490,6600,490,6480,490C6360,490,6240,490,6120,490C6000,490,5880,490,5760,490C5640,490,5520,490,5400,490C5280,490,5160,490,5040,490C4920,490,4800,490,4680,490C4560,490,4440,490,4320,490C4200,490,4080,490,3960,490C3840,490,3720,490,3600,490C3480,490,3360,490,3240,490C3120,490,3000,490,2880,490C2760,490,2640,490,2520,490C2400,490,2280,490,2160,490C2040,490,1920,490,1800,490C1680,490,1560,490,1440,490C1320,490,1200,490,1080,490C960,490,840,490,720,490C600,490,480,490,360,490C240,490,120,490,60,490L0,490Z"/></svg>