<svg id="visual" viewBox="0 0 960 100" width="960" height="100" xmlns="http://www.w3.org/2000/svg" xmlns:xlink="http://www.w3.org/1999/xlink" version="1.1"><rect x="0" y="0" width="960" height="100" fill="#f5f5f5"></rect><path d="M0 24L11.5 28.7C23 33.3 46 42.7 68.8 47.5C91.7 52.3 114.3 52.7 137.2 47.8C160 43 183 33 205.8 26.8C228.7 20.7 251.3 18.3 274.2 21.3C297 24.3 320 32.7 342.8 31.3C365.7 30 388.3 19 411.2 21.3C434 23.7 457 39.3 480 48.8C503 58.3 526 61.7 548.8 64.3C571.7 67 594.3 69 617.2 60.3C640 51.7 663 32.3 685.8 28.7C708.7 25 731.3 37 754.2 49.5C777 62 800 75 822.8 67.7C845.7 60.3 868.3 32.7 891.2 20C914 7.3 937 9.7 948.5 10.8L960 12L960 101L948.5 101C937 101 914 101 891.2 101C868.3 101 845.7 101 822.8 101C800 101 777 101 754.2 101C731.3 101 708.7 101 685.8 101C663 101 640 101 617.2 101C594.3 101 571.7 101 548.8 101C526 101 503 101 480 101C457 101 434 101 411.2 101C388.3 101 365.7 101 342.8 101C320 101 297 101 274.2 101C251.3 101 228.7 101 205.8 101C183 101 160 101 137.2 101C114.3 101 91.7 101 68.8 101C46 101 23 101 11.5 101L0 101Z" fill="#262534"></path></svg>