<svg id="visual" viewBox="0 0 960 100" width="960" height="100" xmlns="http://www.w3.org/2000/svg" xmlns:xlink="http://www.w3.org/1999/xlink" version="1.1"><rect x="0" y="0" width="960" height="100" fill="#f5f5f5"></rect><path d="M0 90L7.7 84.7C15.3 79.3 30.7 68.7 45.8 65.3C61 62 76 66 91.2 58.2C106.3 50.3 121.7 30.7 137 24.5C152.3 18.3 167.7 25.7 183 30.3C198.3 35 213.7 37 228.8 35.7C244 34.3 259 29.7 274.2 27.7C289.3 25.7 304.7 26.3 320 35C335.3 43.7 350.7 60.3 365.8 59.3C381 58.3 396 39.7 411.2 43C426.3 46.3 441.7 71.7 457 72C472.3 72.3 487.7 47.7 503 44.7C518.3 41.7 533.7 60.3 548.8 66.3C564 72.3 579 65.7 594.2 53.8C609.3 42 624.7 25 640 19.3C655.3 13.7 670.7 19.3 685.8 32.7C701 46 716 67 731.2 76.2C746.3 85.3 761.7 82.7 777 76.5C792.3 70.3 807.7 60.7 823 56.2C838.3 51.7 853.7 52.3 868.8 52C884 51.7 899 50.3 914.2 49.7C929.3 49 944.7 49 952.3 49L960 49L960 0L952.3 0C944.7 0 929.3 0 914.2 0C899 0 884 0 868.8 0C853.7 0 838.3 0 823 0C807.7 0 792.3 0 777 0C761.7 0 746.3 0 731.2 0C716 0 701 0 685.8 0C670.7 0 655.3 0 640 0C624.7 0 609.3 0 594.2 0C579 0 564 0 548.8 0C533.7 0 518.3 0 503 0C487.7 0 472.3 0 457 0C441.7 0 426.3 0 411.2 0C396 0 381 0 365.8 0C350.7 0 335.3 0 320 0C304.7 0 289.3 0 274.2 0C259 0 244 0 228.8 0C213.7 0 198.3 0 183 0C167.7 0 152.3 0 137 0C121.7 0 106.3 0 91.2 0C76 0 61 0 45.8 0C30.7 0 15.3 0 7.7 0L0 0Z" fill="#262534"></path></svg>