<svg id="visual" viewBox="0 0 960 100" width="960" height="100" xmlns="http://www.w3.org/2000/svg" xmlns:xlink="http://www.w3.org/1999/xlink" version="1.1"><rect x="0" y="0" width="960" height="100" fill="#f5f5f5"></rect><path d="M0 69L11.5 70C23 71 46 73 68.8 74.5C91.7 76 114.3 77 137.2 78.2C160 79.3 183 80.7 205.8 79.5C228.7 78.3 251.3 74.7 274.2 73.7C297 72.7 320 74.3 342.8 75.7C365.7 77 388.3 78 411.2 76C434 74 457 69 480 69.2C503 69.3 526 74.7 548.8 76.2C571.7 77.7 594.3 75.3 617.2 75.5C640 75.7 663 78.3 685.8 77.2C708.7 76 731.3 71 754.2 69.2C777 67.3 800 68.7 822.8 68.8C845.7 69 868.3 68 891.2 68C914 68 937 69 948.5 69.5L960 70L960 0L948.5 0C937 0 914 0 891.2 0C868.3 0 845.7 0 822.8 0C800 0 777 0 754.2 0C731.3 0 708.7 0 685.8 0C663 0 640 0 617.2 0C594.3 0 571.7 0 548.8 0C526 0 503 0 480 0C457 0 434 0 411.2 0C388.3 0 365.7 0 342.8 0C320 0 297 0 274.2 0C251.3 0 228.7 0 205.8 0C183 0 160 0 137.2 0C114.3 0 91.7 0 68.8 0C46 0 23 0 11.5 0L0 0Z" fill="#262534"></path><path d="M0 69L11.5 67C23 65 46 61 68.8 60.2C91.7 59.3 114.3 61.7 137.2 62.7C160 63.7 183 63.3 205.8 62.8C228.7 62.3 251.3 61.7 274.2 63C297 64.3 320 67.7 342.8 69.2C365.7 70.7 388.3 70.3 411.2 67.8C434 65.3 457 60.7 480 59.7C503 58.7 526 61.3 548.8 61.2C571.7 61 594.3 58 617.2 59.2C640 60.3 663 65.7 685.8 68.7C708.7 71.7 731.3 72.3 754.2 72.7C777 73 800 73 822.8 71.3C845.7 69.7 868.3 66.3 891.2 65.5C914 64.7 937 66.3 948.5 67.2L960 68L960 0L948.5 0C937 0 914 0 891.2 0C868.3 0 845.7 0 822.8 0C800 0 777 0 754.2 0C731.3 0 708.7 0 685.8 0C663 0 640 0 617.2 0C594.3 0 571.7 0 548.8 0C526 0 503 0 480 0C457 0 434 0 411.2 0C388.3 0 365.7 0 342.8 0C320 0 297 0 274.2 0C251.3 0 228.7 0 205.8 0C183 0 160 0 137.2 0C114.3 0 91.7 0 68.8 0C46 0 23 0 11.5 0L0 0Z" fill="#403e4c"></path><path d="M0 49L11.5 50.3C23 51.7 46 54.3 68.8 55.5C91.7 56.7 114.3 56.3 137.2 56.7C160 57 183 58 205.8 58.5C228.7 59 251.3 59 274.2 57.2C297 55.3 320 51.7 342.8 49.7C365.7 47.7 388.3 47.3 411.2 48.8C434 50.3 457 53.7 480 56C503 58.3 526 59.7 548.8 60.5C571.7 61.3 594.3 61.7 617.2 61.2C640 60.7 663 59.3 685.8 58C708.7 56.7 731.3 55.3 754.2 54C777 52.7 800 51.3 822.8 51.2C845.7 51 868.3 52 891.2 52C914 52 937 51 948.5 50.5L960 50L960 0L948.5 0C937 0 914 0 891.2 0C868.3 0 845.7 0 822.8 0C800 0 777 0 754.2 0C731.3 0 708.7 0 685.8 0C663 0 640 0 617.2 0C594.3 0 571.7 0 548.8 0C526 0 503 0 480 0C457 0 434 0 411.2 0C388.3 0 365.7 0 342.8 0C320 0 297 0 274.2 0C251.3 0 228.7 0 205.8 0C183 0 160 0 137.2 0C114.3 0 91.7 0 68.8 0C46 0 23 0 11.5 0L0 0Z" fill="#5b5966"></path><path d="M0 40L11.5 40.8C23 41.7 46 43.3 68.8 43.7C91.7 44 114.3 43 137.2 43.8C160 44.7 183 47.3 205.8 46.7C228.7 46 251.3 42 274.2 40.8C297 39.7 320 41.3 342.8 43.2C365.7 45 388.3 47 411.2 47.8C434 48.7 457 48.3 480 49C503 49.7 526 51.3 548.8 51.2C571.7 51 594.3 49 617.2 48.5C640 48 663 49 685.8 47.5C708.7 46 731.3 42 754.2 41.5C777 41 800 44 822.8 46.3C845.7 48.7 868.3 50.3 891.2 49C914 47.7 937 43.3 948.5 41.2L960 39L960 0L948.5 0C937 0 914 0 891.2 0C868.3 0 845.7 0 822.8 0C800 0 777 0 754.2 0C731.3 0 708.7 0 685.8 0C663 0 640 0 617.2 0C594.3 0 571.7 0 548.8 0C526 0 503 0 480 0C457 0 434 0 411.2 0C388.3 0 365.7 0 342.8 0C320 0 297 0 274.2 0C251.3 0 228.7 0 205.8 0C183 0 160 0 137.2 0C114.3 0 91.7 0 68.8 0C46 0 23 0 11.5 0L0 0Z" fill="#777680"></path><path d="M0 31L11.5 31.3C23 31.7 46 32.3 68.8 34.3C91.7 36.3 114.3 39.7 137.2 40.2C160 40.7 183 38.3 205.8 37.3C228.7 36.3 251.3 36.7 274.2 37.5C297 38.3 320 39.7 342.8 39.7C365.7 39.7 388.3 38.3 411.2 37.7C434 37 457 37 480 37.5C503 38 526 39 548.8 39.3C571.7 39.7 594.3 39.3 617.2 39C640 38.7 663 38.3 685.8 37.5C708.7 36.7 731.3 35.3 754.2 35.2C777 35 800 36 822.8 35.5C845.7 35 868.3 33 891.2 33.7C914 34.3 937 37.7 948.5 39.3L960 41L960 0L948.5 0C937 0 914 0 891.2 0C868.3 0 845.7 0 822.8 0C800 0 777 0 754.2 0C731.3 0 708.7 0 685.8 0C663 0 640 0 617.2 0C594.3 0 571.7 0 548.8 0C526 0 503 0 480 0C457 0 434 0 411.2 0C388.3 0 365.7 0 342.8 0C320 0 297 0 274.2 0C251.3 0 228.7 0 205.8 0C183 0 160 0 137.2 0C114.3 0 91.7 0 68.8 0C46 0 23 0 11.5 0L0 0Z" fill="#95949c"></path><path d="M0 27L11.5 27.3C23 27.7 46 28.3 68.8 27.7C91.7 27 114.3 25 137.2 24.8C160 24.7 183 26.3 205.8 26.7C228.7 27 251.3 26 274.2 26.8C297 27.7 320 30.3 342.8 30.8C365.7 31.3 388.3 29.7 411.2 29.2C434 28.7 457 29.3 480 30.2C503 31 526 32 548.8 32.3C571.7 32.7 594.3 32.3 617.2 32C640 31.7 663 31.3 685.8 30.8C708.7 30.3 731.3 29.7 754.2 28.7C777 27.7 800 26.3 822.8 26.2C845.7 26 868.3 27 891.2 27.7C914 28.3 937 28.7 948.5 28.8L960 29L960 0L948.5 0C937 0 914 0 891.2 0C868.3 0 845.7 0 822.8 0C800 0 777 0 754.2 0C731.3 0 708.7 0 685.8 0C663 0 640 0 617.2 0C594.3 0 571.7 0 548.8 0C526 0 503 0 480 0C457 0 434 0 411.2 0C388.3 0 365.7 0 342.8 0C320 0 297 0 274.2 0C251.3 0 228.7 0 205.8 0C183 0 160 0 137.2 0C114.3 0 91.7 0 68.8 0C46 0 23 0 11.5 0L0 0Z" fill="#b4b3b9"></path><path d="M0 22L11.5 21.7C23 21.3 46 20.7 68.8 19.7C91.7 18.7 114.3 17.3 137.2 18C160 18.7 183 21.3 205.8 22.3C228.7 23.3 251.3 22.7 274.2 22.5C297 22.3 320 22.7 342.8 21.7C365.7 20.7 388.3 18.3 411.2 17.5C434 16.7 457 17.3 480 17C503 16.7 526 15.3 548.8 15.8C571.7 16.3 594.3 18.7 617.2 19.5C640 20.3 663 19.7 685.8 19.2C708.7 18.7 731.3 18.3 754.2 19C777 19.7 800 21.3 822.8 21.3C845.7 21.3 868.3 19.7 891.2 19.7C914 19.7 937 21.3 948.5 22.2L960 23L960 0L948.5 0C937 0 914 0 891.2 0C868.3 0 845.7 0 822.8 0C800 0 777 0 754.2 0C731.3 0 708.7 0 685.8 0C663 0 640 0 617.2 0C594.3 0 571.7 0 548.8 0C526 0 503 0 480 0C457 0 434 0 411.2 0C388.3 0 365.7 0 342.8 0C320 0 297 0 274.2 0C251.3 0 228.7 0 205.8 0C183 0 160 0 137.2 0C114.3 0 91.7 0 68.8 0C46 0 23 0 11.5 0L0 0Z" fill="#d4d4d7"></path><path d="M0 10L11.5 9.5C23 9 46 8 68.8 7.5C91.7 7 114.3 7 137.2 8.2C160 9.3 183 11.7 205.8 12.5C228.7 13.3 251.3 12.7 274.2 11.3C297 10 320 8 342.8 8.3C365.7 8.7 388.3 11.3 411.2 12.5C434 13.7 457 13.3 480 12.2C503 11 526 9 548.8 9.2C571.7 9.3 594.3 11.7 617.2 12C640 12.3 663 10.7 685.8 10.2C708.7 9.7 731.3 10.3 754.2 9.8C777 9.3 800 7.7 822.8 7.8C845.7 8 868.3 10 891.2 11.2C914 12.3 937 12.7 948.5 12.8L960 13L960 0L948.5 0C937 0 914 0 891.2 0C868.3 0 845.7 0 822.8 0C800 0 777 0 754.2 0C731.3 0 708.7 0 685.8 0C663 0 640 0 617.2 0C594.3 0 571.7 0 548.8 0C526 0 503 0 480 0C457 0 434 0 411.2 0C388.3 0 365.7 0 342.8 0C320 0 297 0 274.2 0C251.3 0 228.7 0 205.8 0C183 0 160 0 137.2 0C114.3 0 91.7 0 68.8 0C46 0 23 0 11.5 0L0 0Z" fill="#f5f5f5"></path></svg>