<svg id="visual" viewBox="0 0 960 100" width="960" height="100" xmlns="http://www.w3.org/2000/svg" xmlns:xlink="http://www.w3.org/1999/xlink" version="1.1"><rect x="0" y="0" width="960" height="100" fill="#f5f5f5"></rect><path d="M0 72L10.7 73.2C21.3 74.3 42.7 76.7 64 78.2C85.3 79.7 106.7 80.3 128 78.8C149.3 77.3 170.7 73.7 192 72C213.3 70.3 234.7 70.7 256 71.7C277.3 72.7 298.7 74.3 320 74.2C341.3 74 362.7 72 384 70.8C405.3 69.7 426.7 69.3 448 69.7C469.3 70 490.7 71 512 71.7C533.3 72.3 554.7 72.7 576 72.5C597.3 72.3 618.7 71.7 640 71.2C661.3 70.7 682.7 70.3 704 70.8C725.3 71.3 746.7 72.7 768 73.3C789.3 74 810.7 74 832 73.7C853.3 73.3 874.7 72.7 896 73.8C917.3 75 938.7 78 949.3 79.5L960 81L960 0L949.3 0C938.7 0 917.3 0 896 0C874.7 0 853.3 0 832 0C810.7 0 789.3 0 768 0C746.7 0 725.3 0 704 0C682.7 0 661.3 0 640 0C618.7 0 597.3 0 576 0C554.7 0 533.3 0 512 0C490.7 0 469.3 0 448 0C426.7 0 405.3 0 384 0C362.7 0 341.3 0 320 0C298.7 0 277.3 0 256 0C234.7 0 213.3 0 192 0C170.7 0 149.3 0 128 0C106.7 0 85.3 0 64 0C42.7 0 21.3 0 10.7 0L0 0Z" fill="#262534"></path><path d="M0 42L10.7 43C21.3 44 42.7 46 64 46.3C85.3 46.7 106.7 45.3 128 44.8C149.3 44.3 170.7 44.7 192 45.2C213.3 45.7 234.7 46.3 256 46.8C277.3 47.3 298.7 47.7 320 48.3C341.3 49 362.7 50 384 50C405.3 50 426.7 49 448 48.3C469.3 47.7 490.7 47.3 512 48.3C533.3 49.3 554.7 51.7 576 51.2C597.3 50.7 618.7 47.3 640 45.5C661.3 43.7 682.7 43.3 704 44.3C725.3 45.3 746.7 47.7 768 49.5C789.3 51.3 810.7 52.7 832 52.3C853.3 52 874.7 50 896 48.2C917.3 46.3 938.7 44.7 949.3 43.8L960 43L960 0L949.3 0C938.7 0 917.3 0 896 0C874.7 0 853.3 0 832 0C810.7 0 789.3 0 768 0C746.7 0 725.3 0 704 0C682.7 0 661.3 0 640 0C618.7 0 597.3 0 576 0C554.7 0 533.3 0 512 0C490.7 0 469.3 0 448 0C426.7 0 405.3 0 384 0C362.7 0 341.3 0 320 0C298.7 0 277.3 0 256 0C234.7 0 213.3 0 192 0C170.7 0 149.3 0 128 0C106.7 0 85.3 0 64 0C42.7 0 21.3 0 10.7 0L0 0Z" fill="#86858e"></path><path d="M0 28L10.7 26.8C21.3 25.7 42.7 23.3 64 22.7C85.3 22 106.7 23 128 23.7C149.3 24.3 170.7 24.7 192 23.8C213.3 23 234.7 21 256 20C277.3 19 298.7 19 320 20.2C341.3 21.3 362.7 23.7 384 24.8C405.3 26 426.7 26 448 26.5C469.3 27 490.7 28 512 28.2C533.3 28.3 554.7 27.7 576 26.2C597.3 24.7 618.7 22.3 640 22.7C661.3 23 682.7 26 704 26.3C725.3 26.7 746.7 24.3 768 23.8C789.3 23.3 810.7 24.7 832 24.3C853.3 24 874.7 22 896 21.7C917.3 21.3 938.7 22.7 949.3 23.3L960 24L960 0L949.3 0C938.7 0 917.3 0 896 0C874.7 0 853.3 0 832 0C810.7 0 789.3 0 768 0C746.7 0 725.3 0 704 0C682.7 0 661.3 0 640 0C618.7 0 597.3 0 576 0C554.7 0 533.3 0 512 0C490.7 0 469.3 0 448 0C426.7 0 405.3 0 384 0C362.7 0 341.3 0 320 0C298.7 0 277.3 0 256 0C234.7 0 213.3 0 192 0C170.7 0 149.3 0 128 0C106.7 0 85.3 0 64 0C42.7 0 21.3 0 10.7 0L0 0Z" fill="#f5f5f5"></path></svg>